<svg width="60" height="51" viewBox="0 0 60 51" fill="none" xmlns="http://www.w3.org/2000/svg">
<g clip-path="url(#clip0_23_3)">
<path d="M32.65 6.97638C31.9469 6.37947 30.9938 6.04419 30 6.04419C29.0063 6.04419 28.0531 6.37947 27.35 6.97638L13.2025 18.9954C12.499 19.5934 12.1038 20.4044 12.1038 21.25C12.1038 22.0957 12.499 22.9067 13.2025 23.5046C13.906 24.1026 14.8601 24.4385 15.855 24.4385C16.8499 24.4385 17.804 24.1026 18.5075 23.5046L26.25 16.9256V41.4375C26.25 42.2829 26.6451 43.0936 27.3484 43.6914C28.0516 44.2892 29.0055 44.625 30 44.625C30.9946 44.625 31.9484 44.2892 32.6517 43.6914C33.3549 43.0936 33.75 42.2829 33.75 41.4375V16.9256L41.49 23.5046C41.8384 23.8007 42.2519 24.0356 42.707 24.1958C43.1621 24.3561 43.6499 24.4385 44.1425 24.4385C44.6351 24.4385 45.1229 24.3561 45.578 24.1958C46.0332 24.0356 46.4467 23.8007 46.795 23.5046C47.1434 23.2086 47.4197 22.8571 47.6082 22.4702C47.7967 22.0834 47.8937 21.6687 47.8937 21.25C47.8937 20.8313 47.7967 20.4167 47.6082 20.0298C47.4197 19.643 47.1434 19.2915 46.795 18.9954L32.65 6.97638Z" fill="black"/>
</g>
<defs>
<clipPath id="clip0_23_3">
<rect width="60" height="51" fill="white"/>
</clipPath>
</defs>
</svg>
